    <svg xmlns="http://www.w3.org/2000/svg" xmlns:xlink="http://www.w3.org/1999/xlink" version="1.1" id="Capa_1" x="0px" y="0px" viewBox="0 0 209.1 60.5" style="enable-background:new 0 0 209.1 60.5;" xml:space="preserve">
        <style type="text/css">
            .st0{fill:#000;}
        </style>
        <g id="Capa_x0020_1">
            <g id="_1139312576">
                <path class="st0" d="M178.4,52.9c5.5,0,10-2,13.6-6c3.6-4,5.4-9,5.4-15c0-7.1-2-13-5.9-17.7c-4-4.7-8.9-7.1-14.9-7.1    c-5.4,0-9.9,2-13.5,6c-3.6,4-5.4,9-5.4,15c0,7.1,2,13,5.9,17.7C167.5,50.6,172.5,52.9,178.4,52.9z M176.6,60    c-8.2,0-15-2.9-20.4-8.6s-8.1-13-8.1-21.7c0-8.4,2.9-15.4,8.6-21c5.8-5.6,13-8.4,21.7-8.4c8.2,0,15,2.9,20.4,8.6    c5.4,5.8,8.1,13,8.1,21.7c0,8.4-2.9,15.4-8.6,21S185.2,60,176.6,60z M117.6,16.3L117.6,16.3l7.6,17.5h-15.1L117.6,16.3z     M98.2,42.3C96,47,94.1,50.5,92.7,53s-3,4.5-4.6,6.1h7.3h7.2c-0.3-1.3-0.1-3.7,0.7-6.9c0.8-3.3,1.9-6.7,3.4-10.1l0.3-0.9h21.4    l1.9,4.5c1.2,2.9,2.1,5.5,2.7,8c0.6,2.4,0.7,4.3,0.4,5.4h7.2h7.1c-1.4-1.4-2.8-3.3-4.3-5.8c-1.5-2.4-3.3-6.1-5.6-11L118,0l0,0    L98.2,42.3z M66.3,31.5L66.3,31.5c4.8-0.1,8.2-1,10.5-3c2.2-1.9,3.4-5,3.4-9.3c0-4.2-1-7.3-3.1-9.4c-2.1-2.1-5.2-3.1-9.3-3.1h-1.4    V31.5z M57.6,42.3V17.9c0-3.6-0.1-6.7-0.4-9.1c-0.3-2.5-0.9-5-1.6-7.7H62h7.2c6.9,0,12,1.4,15.4,4.3c3.4,2.8,5.2,7.1,5.2,12.8    c0,6.1-2,10.6-6,13.5c-3.8,2.6-9.6,4-17.4,4.2v6.4c0,3.7,0.2,6.7,0.5,9.2c0.3,2.5,0.8,5,1.6,7.6H62h-6.4c0.7-2.6,1.2-5.1,1.6-7.5    C57.4,49.1,57.6,46,57.6,42.3z M11.9,17.9v14.9c0,6.8,1.1,11.8,3.5,15.1c2.3,3.3,5.9,5,10.7,5c4.4,0,7.7-1.3,9.8-3.9    c2.2-2.6,3.3-6.6,3.3-11.9V17.9c0-3.6-0.2-6.7-0.5-9.1c-0.3-2.5-0.8-5-1.6-7.7h6.4h6.4c-0.7,2.6-1.2,5.1-1.5,7.6    c-0.3,2.5-0.5,5.5-0.5,9.2v24.4c0,3.7,0.1,6.7,0.5,9.2c0.3,2.5,0.8,5,1.6,7.6h-5h-5v-6.3L38.4,54c-5.1,4-10.5,6-16.3,6    c-6.2,0-10.9-2.1-14.2-6.4c-3.3-4.3-4.9-10.5-4.9-18.8V17.9c0-3.6-0.1-6.7-0.4-9.1c-0.3-2.5-0.8-5-1.6-7.7h6.4h6.4    c-0.7,2.6-1.2,5.1-1.6,7.6C12,11.2,11.9,14.2,11.9,17.9z"/>
            </g>
        </g>
    </svg>
